<svg xmlns="http://www.w3.org/2000/svg" viewBox="0 0 1000 560" width="1000" height="560"><rect width="1000" height="560" fill="#FFFFFF"/><rect x="0" y="0" width="1000" height="70" fill="#B4C6DE" stroke="#7F7F7F" stroke-width="1.5"/><text x="24" y="44" font-family="Calibri, Segoe UI, Arial, sans-serif" font-size="22" fill="#000000" font-weight="normal" text-anchor="start">LOGO</text><text x="976" y="44" font-family="Calibri, Segoe UI, Arial, sans-serif" font-size="20" fill="#000000" font-weight="normal" text-anchor="end">Usuario</text><rect x="0" y="70" width="220" height="490" fill="#A6A6A6" stroke="#7F7F7F" stroke-width="1.5"/><text x="110" y="310.0" font-family="Calibri, Segoe UI, Arial, sans-serif" font-size="20" fill="#000000" font-weight="normal" text-anchor="middle">MENÚ</text><text x="250" y="110" font-family="Calibri, Segoe UI, Arial, sans-serif" font-size="22" fill="#000000" font-weight="bold" text-anchor="start">DASHBOARD</text><rect x="250" y="132" width="150" height="70" fill="#D9D9D9" stroke="#7F7F7F" stroke-width="1.5"/><text x="325.0" y="173.0" font-family="Calibri, Segoe UI, Arial, sans-serif" font-size="17" fill="#000000" font-weight="normal" text-anchor="middle">Ventas</text><rect x="416" y="132" width="150" height="70" fill="#D9D9D9" stroke="#7F7F7F" stroke-width="1.5"/><text x="491.0" y="173.0" font-family="Calibri, Segoe UI, Arial, sans-serif" font-size="17" fill="#000000" font-weight="normal" text-anchor="middle">Pedidos</text><rect x="582" y="132" width="150" height="70" fill="#D9D9D9" stroke="#7F7F7F" stroke-width="1.5"/><text x="657.0" y="173.0" font-family="Calibri, Segoe UI, Arial, sans-serif" font-size="17" fill="#000000" font-weight="normal" text-anchor="middle">Stock</text><text x="260" y="260" font-family="Calibri, Segoe UI, Arial, sans-serif" font-size="18" fill="#000000" font-weight="normal" text-anchor="start">Estadísticas</text><ellipse cx="770" cy="330" rx="145" ry="130" fill="#A9C77F" stroke="#7F7F7F" stroke-width="1.5"/><line x1="770" y1="200" x2="770" y2="460" stroke="#7F7F7F" stroke-width="1.5"/><line x1="625" y1="330" x2="915" y2="330" stroke="#7F7F7F" stroke-width="1.5"/><rect x="250" y="285" width="320" height="200" fill="#FFFFFF" stroke="#7F7F7F" stroke-width="1.5"/><text x="265" y="310" font-family="Calibri, Segoe UI, Arial, sans-serif" font-size="15" fill="#000000" font-weight="normal" text-anchor="start">Ventas de la semana</text><rect x="275" y="415" width="34" height="50" fill="#A9C77F" stroke="#7F7F7F" stroke-width="1.5"/><rect x="321" y="385" width="34" height="80" fill="#A9C77F" stroke="#7F7F7F" stroke-width="1.5"/><rect x="367" y="405" width="34" height="60" fill="#A9C77F" stroke="#7F7F7F" stroke-width="1.5"/><rect x="413" y="355" width="34" height="110" fill="#A9C77F" stroke="#7F7F7F" stroke-width="1.5"/><rect x="459" y="335" width="34" height="130" fill="#A9C77F" stroke="#7F7F7F" stroke-width="1.5"/><rect x="505" y="375" width="34" height="90" fill="#A9C77F" stroke="#7F7F7F" stroke-width="1.5"/></svg>