<svg xmlns="http://www.w3.org/2000/svg" viewBox="0 0 1280 846" width="1280" height="846"><rect width="1280" height="846" fill="#FDF8F1"/><rect x="0" y="0" width="1280" height="26" fill="#3E2B1F"/><text x="14" y="18" font-family="Segoe UI, Roboto, Helvetica, Arial, sans-serif" font-size="11" fill="#E8D9C6" font-weight="700" text-anchor="start">MOCKUP</text><g transform="translate(0,26)"><rect width="1280" height="820" fill="#FDF8F1"/><rect x="0" y="0" width="210" height="820" rx="0" fill="#3E2B1F" stroke="none" stroke-width="1"/><circle cx="38" cy="46" r="17" fill="#C1802D" stroke="none" stroke-width="1"/><text x="38" y="51" font-family="Segoe UI, Roboto, Helvetica, Arial, sans-serif" font-size="17" fill="#FFFFFF" font-weight="700" text-anchor="middle">K</text><text x="64" y="42" font-family="Segoe UI, Roboto, Helvetica, Arial, sans-serif" font-size="16" fill="#FFFFFF" font-weight="700" text-anchor="start">Kiataque</text><text x="64" y="58" font-family="Segoe UI, Roboto, Helvetica, Arial, sans-serif" font-size="10" fill="#C9B7A5" font-weight="normal" text-anchor="start">Panadería</text><rect x="26" y="114" width="11" height="11" rx="2" fill="#C9B7A5" stroke="none" stroke-width="1"/><text x="48" y="124" font-family="Segoe UI, Roboto, Helvetica, Arial, sans-serif" font-size="13" fill="#C9B7A5" font-weight="normal" text-anchor="start">Inicio</text><rect x="26" y="158" width="11" height="11" rx="2" fill="#C9B7A5" stroke="none" stroke-width="1"/><text x="48" y="168" font-family="Segoe UI, Roboto, Helvetica, Arial, sans-serif" font-size="13" fill="#C9B7A5" font-weight="normal" text-anchor="start">Productos</text><rect x="12" y="188" width="186" height="38" rx="6" fill="#C1802D" stroke="none" stroke-width="1"/><rect x="26" y="202" width="11" height="11" rx="2" fill="#FFFFFF" stroke="none" stroke-width="1"/><text x="48" y="212" font-family="Segoe UI, Roboto, Helvetica, Arial, sans-serif" font-size="13" fill="#FFFFFF" font-weight="600" text-anchor="start">Ventas</text><rect x="26" y="246" width="11" height="11" rx="2" fill="#C9B7A5" stroke="none" stroke-width="1"/><text x="48" y="256" font-family="Segoe UI, Roboto, Helvetica, Arial, sans-serif" font-size="13" fill="#C9B7A5" font-weight="normal" text-anchor="start">Pedidos</text><rect x="26" y="290" width="11" height="11" rx="2" fill="#C9B7A5" stroke="none" stroke-width="1"/><text x="48" y="300" font-family="Segoe UI, Roboto, Helvetica, Arial, sans-serif" font-size="13" fill="#C9B7A5" font-weight="normal" text-anchor="start">Inventario</text><rect x="26" y="334" width="11" height="11" rx="2" fill="#C9B7A5" stroke="none" stroke-width="1"/><text x="48" y="344" font-family="Segoe UI, Roboto, Helvetica, Arial, sans-serif" font-size="13" fill="#C9B7A5" font-weight="normal" text-anchor="start">Clientes</text><rect x="26" y="378" width="11" height="11" rx="2" fill="#C9B7A5" stroke="none" stroke-width="1"/><text x="48" y="388" font-family="Segoe UI, Roboto, Helvetica, Arial, sans-serif" font-size="13" fill="#C9B7A5" font-weight="normal" text-anchor="start">Reportes</text><line x1="12" y1="742" x2="198" y2="742" stroke="#5A4636" stroke-width="1"/><circle cx="38" cy="776" r="15" fill="#5A4636" stroke="none" stroke-width="1"/><text x="38" y="781" font-family="Segoe UI, Roboto, Helvetica, Arial, sans-serif" font-size="12" fill="#FFFFFF" font-weight="700" text-anchor="middle">R</text><text x="62" y="772" font-family="Segoe UI, Roboto, Helvetica, Arial, sans-serif" font-size="12" fill="#FFFFFF" font-weight="600" text-anchor="start">Rosario V.</text><text x="62" y="787" font-family="Segoe UI, Roboto, Helvetica, Arial, sans-serif" font-size="10" fill="#C9B7A5" font-weight="normal" text-anchor="start">Administradora</text><rect x="210" y="0" width="1070" height="72" rx="0" fill="#FFFFFF" stroke="none" stroke-width="1"/><line x1="210" y1="72" x2="1280" y2="72" stroke="#EFE5D8" stroke-width="1"/><text x="238" y="34" font-family="Segoe UI, Roboto, Helvetica, Arial, sans-serif" font-size="19" fill="#3E2B1F" font-weight="700" text-anchor="start">Registrar Venta</text><text x="238" y="55" font-family="Segoe UI, Roboto, Helvetica, Arial, sans-serif" font-size="12" fill="#6B5A4A" font-weight="normal" text-anchor="start">Punto de venta · Sucursal Centro</text><rect x="950" y="21" width="190" height="32" rx="16" fill="#FAF2E7" stroke="#E3D5C3" stroke-width="1"/><circle cx="967" cy="37" r="5" fill="none" stroke="#6B5A4A" stroke-width="1.4"/><text x="980" y="41" font-family="Segoe UI, Roboto, Helvetica, Arial, sans-serif" font-size="12" fill="#6B5A4A" font-weight="normal" text-anchor="start">Buscar…</text><circle cx="1168" cy="37" r="15" fill="#FAF2E7" stroke="#EFE5D8" stroke-width="1"/><text x="1168" y="42" font-family="Segoe UI, Roboto, Helvetica, Arial, sans-serif" font-size="13" fill="#6B5A4A" font-weight="700" text-anchor="middle">!</text><circle cx="1177" cy="28" r="5" fill="#C0532F" stroke="none" stroke-width="1"/><circle cx="1222" cy="37" r="17" fill="#C1802D" stroke="none" stroke-width="1"/><text x="1222" y="42" font-family="Segoe UI, Roboto, Helvetica, Arial, sans-serif" font-size="13" fill="#FFFFFF" font-weight="700" text-anchor="middle">R</text><text x="238" y="112" font-family="Segoe UI, Roboto, Helvetica, Arial, sans-serif" font-size="14" fill="#3E2B1F" font-weight="700" text-anchor="start">Seleccioná los productos</text><rect x="238" y="126" width="300" height="34" rx="6" fill="#FFFFFF" stroke="#E3D5C3" stroke-width="1"/><circle cx="256" cy="143" r="5" fill="none" stroke="#6B5A4A" stroke-width="1.4"/><text x="270" y="148" font-family="Segoe UI, Roboto, Helvetica, Arial, sans-serif" font-size="11" fill="#6B5A4A" font-weight="normal" text-anchor="start">Buscar producto o escanear código…</text><rect x="238" y="176" width="132" height="116" rx="8" fill="#FFFFFF" stroke="#EFE5D8" stroke-width="1"/><rect x="248" y="186" width="112" height="52" rx="6" fill="#F0E4D2" stroke="#EFE5D8" stroke-width="1"/><line x1="248" y1="186" x2="360" y2="238" stroke="#EFE5D8" stroke-width="1"/><line x1="360" y1="186" x2="248" y2="238" stroke="#EFE5D8" stroke-width="1"/><text x="304.0" y="258" font-family="Segoe UI, Roboto, Helvetica, Arial, sans-serif" font-size="12" fill="#3E2B1F" font-weight="600" text-anchor="middle">Cuñapé</text><text x="304.0" y="278" font-family="Segoe UI, Roboto, Helvetica, Arial, sans-serif" font-size="12" fill="#C1802D" font-weight="700" text-anchor="middle">Bs 3.50</text><rect x="382" y="176" width="132" height="116" rx="8" fill="#FFFFFF" stroke="#EFE5D8" stroke-width="1"/><rect x="392" y="186" width="112" height="52" rx="6" fill="#F0E4D2" stroke="#EFE5D8" stroke-width="1"/><line x1="392" y1="186" x2="504" y2="238" stroke="#EFE5D8" stroke-width="1"/><line x1="504" y1="186" x2="392" y2="238" stroke="#EFE5D8" stroke-width="1"/><text x="448.0" y="258" font-family="Segoe UI, Roboto, Helvetica, Arial, sans-serif" font-size="12" fill="#3E2B1F" font-weight="600" text-anchor="middle">Empanada</text><text x="448.0" y="278" font-family="Segoe UI, Roboto, Helvetica, Arial, sans-serif" font-size="12" fill="#C1802D" font-weight="700" text-anchor="middle">Bs 5.00</text><rect x="526" y="176" width="132" height="116" rx="8" fill="#FFFFFF" stroke="#EFE5D8" stroke-width="1"/><rect x="536" y="186" width="112" height="52" rx="6" fill="#F0E4D2" stroke="#EFE5D8" stroke-width="1"/><line x1="536" y1="186" x2="648" y2="238" stroke="#EFE5D8" stroke-width="1"/><line x1="648" y1="186" x2="536" y2="238" stroke="#EFE5D8" stroke-width="1"/><text x="592.0" y="258" font-family="Segoe UI, Roboto, Helvetica, Arial, sans-serif" font-size="12" fill="#3E2B1F" font-weight="600" text-anchor="middle">Pan batalla</text><text x="592.0" y="278" font-family="Segoe UI, Roboto, Helvetica, Arial, sans-serif" font-size="12" fill="#C1802D" font-weight="700" text-anchor="middle">Bs 0.50</text><rect x="670" y="176" width="132" height="116" rx="8" fill="#FFFFFF" stroke="#EFE5D8" stroke-width="1"/><rect x="680" y="186" width="112" height="52" rx="6" fill="#F0E4D2" stroke="#EFE5D8" stroke-width="1"/><line x1="680" y1="186" x2="792" y2="238" stroke="#EFE5D8" stroke-width="1"/><line x1="792" y1="186" x2="680" y2="238" stroke="#EFE5D8" stroke-width="1"/><text x="736.0" y="258" font-family="Segoe UI, Roboto, Helvetica, Arial, sans-serif" font-size="12" fill="#3E2B1F" font-weight="600" text-anchor="middle">Masaco</text><text x="736.0" y="278" font-family="Segoe UI, Roboto, Helvetica, Arial, sans-serif" font-size="12" fill="#C1802D" font-weight="700" text-anchor="middle">Bs 8.00</text><rect x="814" y="176" width="132" height="116" rx="8" fill="#FFFFFF" stroke="#EFE5D8" stroke-width="1"/><rect x="824" y="186" width="112" height="52" rx="6" fill="#F0E4D2" stroke="#EFE5D8" stroke-width="1"/><line x1="824" y1="186" x2="936" y2="238" stroke="#EFE5D8" stroke-width="1"/><line x1="936" y1="186" x2="824" y2="238" stroke="#EFE5D8" stroke-width="1"/><text x="880.0" y="258" font-family="Segoe UI, Roboto, Helvetica, Arial, sans-serif" font-size="12" fill="#3E2B1F" font-weight="600" text-anchor="middle">Sonso</text><text x="880.0" y="278" font-family="Segoe UI, Roboto, Helvetica, Arial, sans-serif" font-size="12" fill="#C1802D" font-weight="700" text-anchor="middle">Bs 7.00</text><rect x="238" y="304" width="132" height="116" rx="8" fill="#FFFFFF" stroke="#EFE5D8" stroke-width="1"/><rect x="248" y="314" width="112" height="52" rx="6" fill="#F0E4D2" stroke="#EFE5D8" stroke-width="1"/><line x1="248" y1="314" x2="360" y2="366" stroke="#EFE5D8" stroke-width="1"/><line x1="360" y1="314" x2="248" y2="366" stroke="#EFE5D8" stroke-width="1"/><text x="304.0" y="386" font-family="Segoe UI, Roboto, Helvetica, Arial, sans-serif" font-size="12" fill="#3E2B1F" font-weight="600" text-anchor="middle">Pan integral</text><text x="304.0" y="406" font-family="Segoe UI, Roboto, Helvetica, Arial, sans-serif" font-size="12" fill="#C1802D" font-weight="700" text-anchor="middle">Bs 1.20</text><rect x="382" y="304" width="132" height="116" rx="8" fill="#FFFFFF" stroke="#EFE5D8" stroke-width="1"/><rect x="392" y="314" width="112" height="52" rx="6" fill="#F0E4D2" stroke="#EFE5D8" stroke-width="1"/><line x1="392" y1="314" x2="504" y2="366" stroke="#EFE5D8" stroke-width="1"/><line x1="504" y1="314" x2="392" y2="366" stroke="#EFE5D8" stroke-width="1"/><text x="448.0" y="386" font-family="Segoe UI, Roboto, Helvetica, Arial, sans-serif" font-size="12" fill="#3E2B1F" font-weight="600" text-anchor="middle">Torta arroz</text><text x="448.0" y="406" font-family="Segoe UI, Roboto, Helvetica, Arial, sans-serif" font-size="12" fill="#C1802D" font-weight="700" text-anchor="middle">Bs 6.50</text><rect x="526" y="304" width="132" height="116" rx="8" fill="#FFFFFF" stroke="#EFE5D8" stroke-width="1"/><rect x="536" y="314" width="112" height="52" rx="6" fill="#F0E4D2" stroke="#EFE5D8" stroke-width="1"/><line x1="536" y1="314" x2="648" y2="366" stroke="#EFE5D8" stroke-width="1"/><line x1="648" y1="314" x2="536" y2="366" stroke="#EFE5D8" stroke-width="1"/><text x="592.0" y="386" font-family="Segoe UI, Roboto, Helvetica, Arial, sans-serif" font-size="12" fill="#3E2B1F" font-weight="600" text-anchor="middle">Api</text><text x="592.0" y="406" font-family="Segoe UI, Roboto, Helvetica, Arial, sans-serif" font-size="12" fill="#C1802D" font-weight="700" text-anchor="middle">Bs 10.00</text><rect x="670" y="304" width="132" height="116" rx="8" fill="#FFFFFF" stroke="#EFE5D8" stroke-width="1"/><rect x="680" y="314" width="112" height="52" rx="6" fill="#F0E4D2" stroke="#EFE5D8" stroke-width="1"/><line x1="680" y1="314" x2="792" y2="366" stroke="#EFE5D8" stroke-width="1"/><line x1="792" y1="314" x2="680" y2="366" stroke="#EFE5D8" stroke-width="1"/><text x="736.0" y="386" font-family="Segoe UI, Roboto, Helvetica, Arial, sans-serif" font-size="12" fill="#3E2B1F" font-weight="600" text-anchor="middle">Café</text><text x="736.0" y="406" font-family="Segoe UI, Roboto, Helvetica, Arial, sans-serif" font-size="12" fill="#C1802D" font-weight="700" text-anchor="middle">Bs 6.00</text><rect x="950" y="100" width="274" height="684" rx="8" fill="#FFFFFF" stroke="#EFE5D8" stroke-width="1"/><text x="970" y="130" font-family="Segoe UI, Roboto, Helvetica, Arial, sans-serif" font-size="15" fill="#3E2B1F" font-weight="700" text-anchor="start">Detalle de la venta</text><line x1="970" y1="146" x2="1204" y2="146" stroke="#EFE5D8" stroke-width="1"/><text x="970" y="171" font-family="Segoe UI, Roboto, Helvetica, Arial, sans-serif" font-size="11" fill="#6B5A4A" font-weight="600" text-anchor="start">CLIENTE</text><rect x="970" y="178" width="234" height="36" rx="5" fill="#FFFFFF" stroke="#E3D5C3" stroke-width="1"/><text x="982" y="200.0" font-family="Segoe UI, Roboto, Helvetica, Arial, sans-serif" font-size="13" fill="#6B5A4A" font-weight="normal" text-anchor="start">Consumidor final</text><text x="970" y="246" font-family="Segoe UI, Roboto, Helvetica, Arial, sans-serif" font-size="10" fill="#6B5A4A" font-weight="700" text-anchor="start">PRODUCTO</text><text x="1204" y="246" font-family="Segoe UI, Roboto, Helvetica, Arial, sans-serif" font-size="10" fill="#6B5A4A" font-weight="700" text-anchor="end">SUBTOTAL</text><line x1="970" y1="260" x2="1204" y2="260" stroke="#EFE5D8" stroke-width="1"/><text x="970" y="282" font-family="Segoe UI, Roboto, Helvetica, Arial, sans-serif" font-size="12" fill="#3E2B1F" font-weight="600" text-anchor="start">Cuñapé</text><text x="970" y="298" font-family="Segoe UI, Roboto, Helvetica, Arial, sans-serif" font-size="10" fill="#6B5A4A" font-weight="normal" text-anchor="start">12 x unidad</text><text x="1204" y="286" font-family="Segoe UI, Roboto, Helvetica, Arial, sans-serif" font-size="12" fill="#3E2B1F" font-weight="600" text-anchor="end">Bs 42.00</text><line x1="970" y1="312" x2="1204" y2="312" stroke="#EFE5D8" stroke-width="1"/><text x="970" y="334" font-family="Segoe UI, Roboto, Helvetica, Arial, sans-serif" font-size="12" fill="#3E2B1F" font-weight="600" text-anchor="start">Empanada de queso</text><text x="970" y="350" font-family="Segoe UI, Roboto, Helvetica, Arial, sans-serif" font-size="10" fill="#6B5A4A" font-weight="normal" text-anchor="start">6 x unidad</text><text x="1204" y="338" font-family="Segoe UI, Roboto, Helvetica, Arial, sans-serif" font-size="12" fill="#3E2B1F" font-weight="600" text-anchor="end">Bs 30.00</text><line x1="970" y1="364" x2="1204" y2="364" stroke="#EFE5D8" stroke-width="1"/><text x="970" y="386" font-family="Segoe UI, Roboto, Helvetica, Arial, sans-serif" font-size="12" fill="#3E2B1F" font-weight="600" text-anchor="start">Pan de batalla</text><text x="970" y="402" font-family="Segoe UI, Roboto, Helvetica, Arial, sans-serif" font-size="10" fill="#6B5A4A" font-weight="normal" text-anchor="start">20 x unidad</text><text x="1204" y="390" font-family="Segoe UI, Roboto, Helvetica, Arial, sans-serif" font-size="12" fill="#3E2B1F" font-weight="600" text-anchor="end">Bs 10.00</text><line x1="970" y1="416" x2="1204" y2="416" stroke="#EFE5D8" stroke-width="1"/><text x="970" y="438" font-family="Segoe UI, Roboto, Helvetica, Arial, sans-serif" font-size="12" fill="#3E2B1F" font-weight="600" text-anchor="start">Api con pastel</text><text x="970" y="454" font-family="Segoe UI, Roboto, Helvetica, Arial, sans-serif" font-size="10" fill="#6B5A4A" font-weight="normal" text-anchor="start">2 x unidad</text><text x="1204" y="442" font-family="Segoe UI, Roboto, Helvetica, Arial, sans-serif" font-size="12" fill="#3E2B1F" font-weight="600" text-anchor="end">Bs 20.00</text><line x1="970" y1="472" x2="1204" y2="472" stroke="#E3D5C3" stroke-width="1"/><text x="970" y="496" font-family="Segoe UI, Roboto, Helvetica, Arial, sans-serif" font-size="12" fill="#6B5A4A" font-weight="normal" text-anchor="start">Subtotal</text><text x="1204" y="496" font-family="Segoe UI, Roboto, Helvetica, Arial, sans-serif" font-size="12" fill="#6B5A4A" font-weight="normal" text-anchor="end">Bs 102.00</text><text x="970" y="520" font-family="Segoe UI, Roboto, Helvetica, Arial, sans-serif" font-size="12" fill="#4C7A46" font-weight="normal" text-anchor="start">Descuento (promo)</text><text x="1204" y="520" font-family="Segoe UI, Roboto, Helvetica, Arial, sans-serif" font-size="12" fill="#4C7A46" font-weight="normal" text-anchor="end">- Bs 7.00</text><line x1="970" y1="534" x2="1204" y2="534" stroke="#E3D5C3" stroke-width="1"/><text x="970" y="564" font-family="Segoe UI, Roboto, Helvetica, Arial, sans-serif" font-size="15" fill="#3E2B1F" font-weight="700" text-anchor="start">TOTAL</text><text x="1204" y="566" font-family="Segoe UI, Roboto, Helvetica, Arial, sans-serif" font-size="22" fill="#C1802D" font-weight="700" text-anchor="end">Bs 95.00</text><text x="970" y="590" font-family="Segoe UI, Roboto, Helvetica, Arial, sans-serif" font-size="10" fill="#6B5A4A" font-weight="700" text-anchor="start">MÉTODO DE PAGO</text><rect x="970" y="600" width="76" height="30" rx="6" fill="#C1802D" stroke="#C1802D" stroke-width="1"/><text x="1008" y="620" font-family="Segoe UI, Roboto, Helvetica, Arial, sans-serif" font-size="11" fill="#FFFFFF" font-weight="600" text-anchor="middle">Efectivo</text><rect x="1052" y="600" width="76" height="30" rx="6" fill="#FFFFFF" stroke="#E3D5C3" stroke-width="1"/><text x="1090" y="620" font-family="Segoe UI, Roboto, Helvetica, Arial, sans-serif" font-size="11" fill="#6B5A4A" font-weight="600" text-anchor="middle">QR</text><rect x="1134" y="600" width="76" height="30" rx="6" fill="#FFFFFF" stroke="#E3D5C3" stroke-width="1"/><text x="1172" y="620" font-family="Segoe UI, Roboto, Helvetica, Arial, sans-serif" font-size="11" fill="#6B5A4A" font-weight="600" text-anchor="middle">Tarjeta</text><rect x="970" y="646" width="234" height="46" rx="6" fill="#C1802D" stroke="#C1802D" stroke-width="1"/><text x="1087.0" y="673.0" font-family="Segoe UI, Roboto, Helvetica, Arial, sans-serif" font-size="13" fill="#FFFFFF" font-weight="600" text-anchor="middle">CONFIRMAR VENTA</text><text x="1087" y="712" font-family="Segoe UI, Roboto, Helvetica, Arial, sans-serif" font-size="12" fill="#6B5A4A" font-weight="normal" text-anchor="middle">Cancelar</text></g></svg>